<svg width="53" height="66" viewBox="0 0 53 66" fill="none" xmlns="http://www.w3.org/2000/svg">
<path d="M48.6062 0H4.39378C1.97102 0 0 1.97381 0 4.4V44.55C0 45.1575 0.491829 45.65 1.09845 45.65C3.08842 45.65 42.8723 45.65 44.6244 45.65C45.231 45.65 45.7228 45.1575 45.7228 44.55C45.7228 43.9425 45.231 43.45 44.6244 43.45H36.386V31.075C36.386 30.4675 35.8942 29.975 35.2876 29.975C33.952 29.975 25.6409 29.975 24.3031 29.975C23.6965 29.975 23.2047 30.4675 23.2047 31.075V33.9625H18.8109C18.2043 33.9625 17.7124 34.455 17.7124 35.0625V43.45H2.19689V4.4C2.19689 3.18698 3.18247 2.2 4.39378 2.2H48.6062C49.8175 2.2 50.8031 3.18698 50.8031 4.4V14.7125C50.8031 15.32 51.2949 15.8125 51.9016 15.8125C52.5082 15.8125 53 15.32 53 14.7125V4.4C53 1.97381 51.029 0 48.6062 0ZM34.1891 43.45H30.8938V32.175H34.1891V43.45ZM25.4016 32.175H28.6969V43.45H25.4016C25.4016 42.1741 25.4016 33.4525 25.4016 32.175ZM19.9093 36.1625H23.2047V43.45H19.9093V36.1625ZM51.9016 20.35H28.1477V12.5125C28.1477 11.905 27.6558 11.4125 27.0492 11.4125H22.6554V7.425C22.6554 6.81753 22.1636 6.325 21.557 6.325C20.2214 6.325 11.9103 6.325 10.5725 6.325C9.96592 6.325 9.47409 6.81753 9.47409 7.425V20.35H8.78757C8.18095 20.35 7.68912 20.8425 7.68912 21.45C7.68912 22.0575 8.18095 22.55 8.78757 22.55C25.6436 22.55 33.8555 22.55 50.8031 22.55V61.6C50.8031 62.813 49.8175 63.8 48.6062 63.8H45.7228V51.425C45.7228 50.8175 45.231 50.325 44.6244 50.325C43.2888 50.325 34.9777 50.325 33.6399 50.325C33.0333 50.325 32.5415 50.8175 32.5415 51.425V63.8H25.9508V59.4C25.9508 58.7925 25.4589 58.3 24.8523 58.3H11.3964C10.7898 58.3 10.2979 58.7925 10.2979 59.4V63.8H4.39378C3.18247 63.8 2.19689 62.813 2.19689 61.6V51.3563C2.19689 50.7488 1.70506 50.2563 1.09845 50.2563C0.491829 50.2563 0 50.7488 0 51.3563V61.6C0 64.0262 1.97102 66 4.39378 66C9.53616 66 44.0103 66 48.6062 66C51.029 66 53 64.0262 53 61.6V21.45C53 20.8425 52.5082 20.35 51.9016 20.35ZM12.4948 63.8V60.5H23.7539V63.8H12.4948ZM34.7383 52.525H38.0337V63.8H34.7383V52.525ZM40.2306 63.8V52.525H43.5259V63.8H40.2306ZM11.671 8.525H14.9663V20.35H11.671V8.525ZM17.1632 8.525H20.4586C20.4586 10.8078 20.4586 18.1101 20.4586 20.35H17.1632V8.525ZM22.6554 20.35V13.6125H25.9508V20.35H22.6554Z" fill="#EFF9FF"/>
</svg>
