<svg width="64" height="64" viewBox="0 0 64 64" fill="none" xmlns="http://www.w3.org/2000/svg">
<path d="M32 5.5C26.9543 5.50127 22.0138 6.94303 17.7594 9.65579C13.5049 12.3685 10.1134 16.2395 7.98345 20.8137C5.85352 25.3878 5.07374 30.4749 5.73578 35.477C6.39782 40.4791 8.47416 45.1882 11.7207 49.0508C11.9907 49.3608 12.2505 49.67 12.5605 50L12.8105 50.2695L13.2598 50.7305L13.4492 50.9102L13.6992 51.1504C14.0092 51.4504 14.3406 51.75 14.6406 52C14.9406 52.25 15.3705 52.6306 15.7305 52.8906C16.0905 53.1506 16.3705 53.3794 16.7305 53.6094L17 53.8008C17.22 53.9608 17.4391 54.1009 17.6191 54.2109L18.2207 54.5898H18.2891C19.0291 55.0398 19.7505 55.4291 20.4805 55.7891L20.5898 55.8398C20.9098 55.9998 21.2298 56.1395 21.5898 56.2695C22.8294 56.7969 24.1063 57.2316 25.4102 57.5703L26.5898 57.8398C26.9698 57.9198 27.3492 57.9891 27.6992 58.0391L28.1602 58.1094C28.4502 58.1594 28.7393 58.1907 29.0293 58.2207L29.5391 58.2793C29.8491 58.2793 30.1605 58.3296 30.4805 58.3496H30.75H32.0098H33.2695H33.5391C33.8591 58.3496 34.1691 58.3493 34.5391 58.2793L35 58.2305C35.31 58.2305 35.5991 58.1709 35.7891 58.1309L36.3008 58.0508C36.7008 57.9908 37.0809 57.9198 37.4609 57.8398L38.6699 57.5605C39.9563 57.223 41.2162 56.7915 42.4395 56.2695C42.7695 56.1295 43.0895 55.9901 43.4395 55.8301L42.7891 54.4805L43.5605 55.7793C44.2905 55.4293 45.0098 55.0301 45.7598 54.5801L45.8496 54.5195L46.3691 54.1895C46.6091 54.0395 46.85 53.8895 47 53.7695L47.2695 53.5898C47.6095 53.3598 47.9495 53.0994 48.2695 52.8594C48.5895 52.6194 49.0194 52.2607 49.3594 51.9707C49.6994 51.6807 50.0193 51.4006 50.2793 51.1406L50.5801 50.8496L50.3809 50.6504C50.7154 50.5962 51.0218 50.4303 51.25 50.1797L51.5098 49.9004C51.7898 49.6104 52.0503 49.3002 52.3203 48.9902C55.5505 45.1238 57.6116 40.4167 58.2619 35.4207C58.9122 30.4247 58.1249 25.3468 55.9922 20.7823C53.8595 16.2177 50.4698 12.3558 46.2204 9.64909C41.9711 6.94239 37.0382 5.50312 32 5.5V5.5ZM32.7871 8.60352C37.1967 8.74007 41.4787 10.1151 45.1434 12.5713C48.8081 15.0275 51.7073 18.4657 53.5095 22.4924C55.3117 26.5192 55.944 30.972 55.334 35.3413C54.7241 39.7106 52.8966 43.8199 50.0605 47.1992L50 47.1191C49.77 47.3991 49.5303 47.6606 49.3203 47.8906L48.9902 48.2402C48.7941 48.455 48.6651 48.7225 48.6191 49.0098L48.4102 48.8105L48.1992 49.0098C47.9392 49.2598 47.6809 49.5 47.3809 49.75C47.0809 50 46.7609 50.2805 46.3809 50.5605C46.0009 50.8405 45.8205 50.9907 45.4805 51.2207L45.2793 51.3594C45.1193 51.4794 44.9507 51.5905 44.7207 51.7305L44.25 52.0293H44.1895C43.5195 52.4393 42.8691 52.7893 42.2891 53.0293L42.0898 53.1191C41.8198 53.2491 41.5498 53.3702 41.2598 53.4902C40.1757 53.9511 39.0594 54.3323 37.9199 54.6309L36.8203 55C36.5003 55.07 36.1703 55.1295 35.8203 55.1895L35.3594 55.2598C35.1494 55.2598 34.9299 55.3198 34.6699 55.3398H34.2305C33.9605 55.3398 33.6899 55.3404 33.4199 55.4004H33.0996C32.3641 55.4492 31.6261 55.4492 30.8906 55.4004H30.6094C30.3394 55.4004 30.0601 55.3996 29.8301 55.3496L29.3398 55.2891C29.1098 55.2891 28.8901 55.2895 28.5801 55.1895L28.1602 55.1191C27.8202 55.1191 27.4902 54.9995 27.1602 54.9395L26.0996 54.6992C24.943 54.3965 23.8104 54.0088 22.7109 53.5391L22 53.25L21.8594 53.1797C21.1749 52.8537 20.5074 52.4932 19.8594 52.0996H19.8008L19.2793 51.7695C19.1093 51.6695 18.9395 51.5495 18.7695 51.4395L18.6602 51.3691L18.5 51.25C18.21 51.06 17.9309 50.8494 17.6309 50.6094C17.3309 50.3694 16.9909 50.1008 16.6309 49.8008C16.2709 49.5008 16.0891 49.3291 15.7891 49.0391L15.6191 48.8691L15.4199 48.6699L15 48.2695L14.7695 48C14.5295 47.74 14.2905 47.4692 14.0605 47.1992C11.1451 43.7253 9.29713 39.4819 8.73964 34.981C8.18215 30.4802 8.93893 25.9142 10.9187 21.8339C12.8984 17.7536 16.0166 14.3333 19.8969 11.9857C23.7773 9.6381 28.254 8.46346 32.7871 8.60352V8.60352ZM31.957 15.3203C31.5667 15.3315 31.1961 15.4945 30.924 15.7746C30.652 16.0547 30.4998 16.4298 30.5 16.8203V30.5H16.8203C16.4225 30.5 16.041 30.658 15.7597 30.9393C15.4783 31.2206 15.3203 31.6022 15.3203 32C15.3203 32.3978 15.4783 32.7794 15.7597 33.0607C16.041 33.342 16.4225 33.5 16.8203 33.5H30.5V47.1797C30.5 47.5775 30.658 47.959 30.9393 48.2403C31.2206 48.5217 31.6022 48.6797 32 48.6797C32.3978 48.6797 32.7794 48.5217 33.0607 48.2403C33.342 47.959 33.5 47.5775 33.5 47.1797V33.5H47.1797C47.5775 33.5 47.959 33.342 48.2403 33.0607C48.5217 32.7794 48.6797 32.3978 48.6797 32C48.6797 31.6022 48.5217 31.2206 48.2403 30.9393C47.959 30.658 47.5775 30.5 47.1797 30.5H33.5V16.8203C33.5001 16.6197 33.4599 16.421 33.3819 16.2362C33.3038 16.0513 33.1894 15.884 33.0456 15.7442C32.9017 15.6043 32.7312 15.4947 32.5443 15.4219C32.3573 15.3491 32.1576 15.3146 31.957 15.3203V15.3203Z" fill="#67597A"/>
</svg>
