<svg fill="#000000" xmlns="http://www.w3.org/2000/svg"  viewBox="0 0 98 98" width="64px" height="64px"><path d="M 74.3,32 H 23.7 a 2,2 0 0 0 -1.5,0.5 1.7,1.7 0 0 0 -0.5,1.5 l 5.2,45.3 A 9.9,9.9 0 0 0 36.8,88 H 62 A 9.9,9.9 0 0 0 72,79 L 76.3,33.8 A 1.7,1.7 0 0 0 75.8,32.5 2,2 0 0 0 74.3,32 Z M 68,78.8 A 5.8,5.8 0 0 1 62,84 H 36.8 A 5.7,5.7 0 0 1 30.9,78.9 L 25.9,36 H 72.1 Z M 81.6,19 H 61 V 15.8 A 5.6,5.6 0 0 0 55.3,10 H 42.7 A 5.6,5.6 0 0 0 37,15.8 V 19 H 16.4 a 2,2 0 1 0 0,4 h 65.2 a 2,2 0 0 0 0,-4 z M 41,19 V 15.8 A 1.6,1.6 0 0 1 42.7,14 H 55.3 A 1.6,1.6 0 0 1 57,15.8 V 19 Z"/></svg>