<svg width="66" height="83" viewBox="0 0 66 83" fill="none" xmlns="http://www.w3.org/2000/svg">
<path d="M63.5392 43.0392C62.9892 43.0392 62.4892 43.3392 62.2392 43.8392C55.8392 55.4892 44.3392 63.3392 33.5392 63.3392C22.7392 63.3392 11.2392 55.4892 4.83924 43.7892C4.43924 43.0392 3.53924 42.7892 2.78924 43.1892C2.03924 43.5892 1.78924 44.4892 2.18924 45.2392C9.18924 58.0392 21.4892 66.3392 33.5392 66.3392C45.5892 66.3392 57.8892 58.0392 64.8392 45.2392C65.2392 44.4892 64.9892 43.5892 64.2392 43.1892C64.0392 43.0892 63.7892 43.0392 63.5392 43.0392Z" fill="#544E61"/>
<path d="M33.5392 70.8392C32.6892 70.8392 32.0392 71.4892 32.0392 72.3392V81.3392C32.0392 82.1892 32.6892 82.8392 33.5392 82.8392C34.3892 82.8392 35.0392 82.1892 35.0392 81.3392V72.3392C35.0392 71.4892 34.3892 70.8392 33.5392 70.8392Z" fill="#544E61"/>
<path d="M13.5892 65.0892C13.2392 65.0892 12.8892 65.2392 12.5892 65.4892L9.53923 68.2392C8.93923 68.7892 8.88923 69.7392 9.43923 70.3392C9.98923 70.9392 10.9392 70.9892 11.5392 70.4392L14.5892 67.6892C15.1892 67.1392 15.2392 66.1892 14.6892 65.5892C14.3892 65.2392 13.9892 65.0892 13.5892 65.0892Z" fill="#544E61"/>
<path d="M53.3892 65.1392C52.9892 65.1392 52.6392 65.2892 52.3392 65.5892C51.7392 66.1892 51.7392 67.1392 52.3392 67.6892L54.9892 70.3892C55.5892 70.9892 56.5392 70.9892 57.0892 70.3892C57.6892 69.7892 57.6892 68.8392 57.0892 68.2892L54.4392 65.5892C54.1892 65.2892 53.7892 65.1392 53.3892 65.1392Z" fill="#544E61"/>
<path d="M43.5892 69.5893C43.3892 69.5893 43.1892 69.6393 43.0392 69.6893C42.2892 69.9893 41.8892 70.8893 42.2392 71.6393L45.2892 79.0393C45.5892 79.7893 46.4892 80.1893 47.2392 79.8393C47.9892 79.5393 48.3892 78.6393 48.0392 77.8893L44.9892 70.4893C44.7392 69.9393 44.1892 69.5893 43.5892 69.5893Z" fill="#544E61"/>
<path d="M23.5392 69.5392C22.9392 69.5392 22.3892 69.8892 22.1392 70.4892L19.0892 77.8392C18.7892 78.5892 19.1392 79.4892 19.8892 79.7892C20.6392 80.0892 21.5392 79.7392 21.8392 78.9892L24.8892 71.5892C25.1892 70.8392 24.8392 69.9392 24.0892 69.6392C23.8892 69.5392 23.7392 69.5392 23.5392 69.5392Z" fill="#544E61"/>
</svg>
