<svg width="64" height="64" viewBox="0 0 64 64" fill="none" xmlns="http://www.w3.org/2000/svg">
<path d="M56.5 33.85C56.5 43.8 45.8 57.85 32 57.85C18.2 57.85 7.5 43.8 7.5 33.85C7.5 33.85 18.2 21.85 32 21.85C45.8 21.85 56.5 33.85 56.5 33.85Z" fill="white"/>
<path d="M32 52.35C38.9036 52.35 44.5 46.7536 44.5 39.85C44.5 32.9464 38.9036 27.35 32 27.35C25.0964 27.35 19.5 32.9464 19.5 39.85C19.5 46.7536 25.0964 52.35 32 52.35Z" fill="#67597A"/>
<path d="M32 47C36.1421 47 39.5 43.6421 39.5 39.5C39.5 35.3579 36.1421 32 32 32C27.8579 32 24.5 35.3579 24.5 39.5C24.5 43.6421 27.8579 47 32 47Z" fill="#544E61"/>
<path d="M26.5 37C28.1569 37 29.5 35.6569 29.5 34C29.5 32.3431 28.1569 31 26.5 31C24.8431 31 23.5 32.3431 23.5 34C23.5 35.6569 24.8431 37 26.5 37Z" fill="#EFF9FF"/>
<path d="M62 43.3C61.45 43.3 60.95 43 60.7 42.5C54.3 30.85 42.8 23 32 23C21.2 23 9.7 30.85 3.3 42.55C2.9 43.3 2 43.55 1.25 43.15C0.499998 42.75 0.249998 41.85 0.649998 41.1C7.65 28.3 19.95 20 32 20C44.05 20 56.35 28.3 63.3 41.1C63.7 41.85 63.45 42.75 62.7 43.15C62.5 43.25 62.25 43.3 62 43.3Z" fill="#544E61"/>
<path d="M32 59.15C22.65 59.15 13.95 53.1 8.2 42.5C7.8 41.75 8.05 40.85 8.8 40.45C9.55 40.05 10.45 40.3 10.85 41.05C16.1 50.65 23.8 56.1 32.05 56.1C40.3 56.1 48 50.6 53.25 41.05C53.65 40.3 54.55 40.05 55.3 40.45C56.05 40.85 56.3 41.75 55.9 42.5C50.05 53.1 41.35 59.15 32 59.15Z" fill="#544E61"/>
<path d="M32 15.5C31.15 15.5 30.5 14.85 30.5 14V5C30.5 4.15 31.15 3.5 32 3.5C32.85 3.5 33.5 4.15 33.5 5V14C33.5 14.85 32.85 15.5 32 15.5Z" fill="#544E61"/>
<path d="M12.05 21.25C11.7 21.25 11.35 21.1 11.05 20.85L8 18.1C7.4 17.55 7.35 16.6 7.9 16C8.45 15.4 9.4 15.35 10 15.9L13.05 18.65C13.65 19.2 13.7 20.15 13.15 20.75C12.85 21.1 12.45 21.25 12.05 21.25Z" fill="#544E61"/>
<path d="M51.85 21.2C51.45 21.2 51.1 21.05 50.8 20.75C50.2 20.15 50.2 19.2 50.8 18.65L53.45 15.95C54.05 15.35 55 15.35 55.55 15.95C56.15 16.55 56.15 17.5 55.55 18.05L52.9 20.75C52.65 21.05 52.25 21.2 51.85 21.2Z" fill="#544E61"/>
<path d="M42.05 16.75C41.85 16.75 41.65 16.7 41.5 16.65C40.75 16.35 40.35 15.45 40.7 14.7L43.75 7.3C44.05 6.55 44.95 6.15 45.7 6.5C46.45 6.8 46.85 7.7 46.5 8.45L43.45 15.85C43.2 16.4 42.65 16.75 42.05 16.75Z" fill="#544E61"/>
<path d="M22 16.8C21.4 16.8 20.85 16.45 20.6 15.85L17.55 8.5C17.25 7.75 17.6 6.85 18.35 6.55C19.1 6.25 20 6.6 20.3 7.35L23.35 14.75C23.65 15.5 23.3 16.4 22.55 16.7C22.35 16.8 22.2 16.8 22 16.8Z" fill="#544E61"/>
</svg>
